<svg width="56" height="56" viewBox="0 0 56 56" fill="none" xmlns="http://www.w3.org/2000/svg">
<path d="M37.6909 18.7734C35.9176 17.9467 33.9976 17.3467 31.9976 17.0001C31.98 16.9995 31.9626 17.0028 31.9464 17.0097C31.9303 17.0166 31.9159 17.027 31.9042 17.0401C31.6642 17.4801 31.3842 18.0534 31.1976 18.4934C29.0762 18.1734 26.9189 18.1734 24.7976 18.4934C24.6109 18.0401 24.3309 17.4801 24.0776 17.0401C24.0642 17.0134 24.0242 17.0001 23.9842 17.0001C21.9842 17.3467 20.0776 17.9467 18.2909 18.7734C18.2776 18.7734 18.2642 18.7867 18.2509 18.8001C14.6242 24.2267 13.6242 29.5067 14.1176 34.7334C14.1176 34.7601 14.1309 34.7867 14.1576 34.8001C16.5576 36.5601 18.8642 37.6267 21.1442 38.3334C21.1842 38.3467 21.2242 38.3334 21.2376 38.3067C21.7709 37.5734 22.2509 36.8001 22.6642 35.9867C22.6909 35.9334 22.6642 35.8801 22.6109 35.8667C21.8509 35.5734 21.1309 35.2267 20.4242 34.8267C20.3709 34.8001 20.3709 34.7201 20.4109 34.6801C20.5576 34.5734 20.7042 34.4534 20.8509 34.3467C20.8776 34.3201 20.9176 34.3201 20.9442 34.3334C25.5309 36.4267 30.4776 36.4267 35.0109 34.3334C35.0376 34.3201 35.0776 34.3201 35.1042 34.3467C35.2509 34.4667 35.3976 34.5734 35.5442 34.6934C35.5976 34.7334 35.5976 34.8134 35.5309 34.8401C34.8376 35.2534 34.1042 35.5867 33.3442 35.8801C33.2909 35.8934 33.2776 35.9601 33.2909 36.0001C33.7176 36.8134 34.1976 37.5867 34.7176 38.3201C34.7576 38.3334 34.7976 38.3467 34.8376 38.3334C37.1309 37.6267 39.4376 36.5601 41.8376 34.8001C41.8642 34.7867 41.8776 34.7601 41.8776 34.7334C42.4642 28.6934 40.9042 23.4534 37.7442 18.8001C37.7309 18.7867 37.7176 18.7734 37.6909 18.7734ZM23.3576 31.5467C21.9842 31.5467 20.8376 30.2801 20.8376 28.7201C20.8376 27.1601 21.9576 25.8934 23.3576 25.8934C24.7709 25.8934 25.8909 27.1734 25.8776 28.7201C25.8776 30.2801 24.7576 31.5467 23.3576 31.5467ZM32.6509 31.5467C31.2776 31.5467 30.1309 30.2801 30.1309 28.7201C30.1309 27.1601 31.2509 25.8934 32.6509 25.8934C34.0642 25.8934 35.1842 27.1734 35.1709 28.7201C35.1709 30.2801 34.0642 31.5467 32.6509 31.5467Z" fill="#CCCCCC"/>
</svg>
