<svg width="56" height="56" viewBox="0 0 56 56" fill="none" xmlns="http://www.w3.org/2000/svg">
<path d="M28.3333 15C26.5824 15 24.8486 15.3449 23.2309 16.0149C21.6132 16.685 20.1434 17.6671 18.9052 18.9052C16.4048 21.4057 15 24.7971 15 28.3333C15 34.2267 18.8267 39.2267 24.12 41C24.7867 41.1067 25 40.6933 25 40.3333V38.08C21.3067 38.88 20.52 36.2933 20.52 36.2933C19.9067 34.7467 19.04 34.3333 19.04 34.3333C17.8267 33.5067 19.1333 33.5333 19.1333 33.5333C20.4667 33.6267 21.1733 34.9067 21.1733 34.9067C22.3333 36.9333 24.2933 36.3333 25.0533 36.0133C25.1733 35.1467 25.52 34.56 25.8933 34.2267C22.9333 33.8933 19.8267 32.7467 19.8267 27.6667C19.8267 26.1867 20.3333 25 21.2 24.0533C21.0667 23.72 20.6 22.3333 21.3333 20.5333C21.3333 20.5333 22.4533 20.1733 25 21.8933C26.0533 21.6 27.2 21.4533 28.3333 21.4533C29.4667 21.4533 30.6133 21.6 31.6667 21.8933C34.2133 20.1733 35.3333 20.5333 35.3333 20.5333C36.0667 22.3333 35.6 23.72 35.4667 24.0533C36.3333 25 36.84 26.1867 36.84 27.6667C36.84 32.76 33.72 33.88 30.7467 34.2133C31.2267 34.6267 31.6667 35.44 31.6667 36.68V40.3333C31.6667 40.6933 31.88 41.12 32.56 41C37.8533 39.2133 41.6667 34.2267 41.6667 28.3333C41.6667 26.5824 41.3218 24.8486 40.6517 23.2309C39.9817 21.6132 38.9995 20.1434 37.7614 18.9052C36.5233 17.6671 35.0535 16.685 33.4358 16.0149C31.8181 15.3449 30.0843 15 28.3333 15Z" fill="#CCCCCC"/>
</svg>
