<svg width="24" height="24" viewBox="0 0 24 24" fill="none" xmlns="http://www.w3.org/2000/svg">
<g id="icon/blist">
<rect x="0.5" y="0.5" width="23" height="23" stroke="#CCCCCC"/>
<path id="Vector" fill-rule="evenodd" clip-rule="evenodd" d="M6.67925 10.3585C6.85939 10.3585 7.03216 10.2869 7.15954 10.1595C7.28693 10.0322 7.35849 9.85939 7.35849 9.67925C7.35849 9.4991 7.28693 9.32633 7.15954 9.19895C7.03216 9.07156 6.85939 9 6.67925 9C6.4991 9 6.32633 9.07156 6.19895 9.19895C6.07156 9.32633 6 9.4991 6 9.67925C6 9.85939 6.07156 10.0322 6.19895 10.1595C6.32633 10.2869 6.4991 10.3585 6.67925 10.3585ZM8.9434 9.67925C8.9434 9.55915 8.99111 9.44397 9.07603 9.35905C9.16095 9.27412 9.27613 9.22642 9.39623 9.22642H17.5472C17.6673 9.22642 17.7824 9.27412 17.8674 9.35905C17.9523 9.44397 18 9.55915 18 9.67925C18 9.79934 17.9523 9.91452 17.8674 9.99944C17.7824 10.0844 17.6673 10.1321 17.5472 10.1321H9.39623C9.27613 10.1321 9.16095 10.0844 9.07603 9.99944C8.99111 9.91452 8.9434 9.79934 8.9434 9.67925ZM9.39623 11.9434C9.27613 11.9434 9.16095 11.9911 9.07603 12.076C8.99111 12.1609 8.9434 12.2761 8.9434 12.3962C8.9434 12.5163 8.99111 12.6315 9.07603 12.7164C9.16095 12.8013 9.27613 12.8491 9.39623 12.8491H17.5472C17.6673 12.8491 17.7824 12.8013 17.8674 12.7164C17.9523 12.6315 18 12.5163 18 12.3962C18 12.2761 17.9523 12.1609 17.8674 12.076C17.7824 11.9911 17.6673 11.9434 17.5472 11.9434H9.39623ZM9.39623 14.6604C9.27613 14.6604 9.16095 14.7081 9.07603 14.793C8.99111 14.8779 8.9434 14.9931 8.9434 15.1132C8.9434 15.2333 8.99111 15.3485 9.07603 15.4334C9.16095 15.5183 9.27613 15.566 9.39623 15.566H17.5472C17.6673 15.566 17.7824 15.5183 17.8674 15.4334C17.9523 15.3485 18 15.2333 18 15.1132C18 14.9931 17.9523 14.8779 17.8674 14.793C17.7824 14.7081 17.6673 14.6604 17.5472 14.6604H9.39623ZM7.35849 12.3962C7.35849 12.5764 7.28693 12.7491 7.15954 12.8765C7.03216 13.0039 6.85939 13.0755 6.67925 13.0755C6.4991 13.0755 6.32633 13.0039 6.19895 12.8765C6.07156 12.7491 6 12.5764 6 12.3962C6 12.2161 6.07156 12.0433 6.19895 11.9159C6.32633 11.7885 6.4991 11.717 6.67925 11.717C6.85939 11.717 7.03216 11.7885 7.15954 11.9159C7.28693 12.0433 7.35849 12.2161 7.35849 12.3962ZM6.67925 15.7925C6.85939 15.7925 7.03216 15.7209 7.15954 15.5935C7.28693 15.4661 7.35849 15.2934 7.35849 15.1132C7.35849 14.9331 7.28693 14.7603 7.15954 14.6329C7.03216 14.5055 6.85939 14.434 6.67925 14.434C6.4991 14.434 6.32633 14.5055 6.19895 14.6329C6.07156 14.7603 6 14.9331 6 15.1132C6 15.2934 6.07156 15.4661 6.19895 15.5935C6.32633 15.7209 6.4991 15.7925 6.67925 15.7925Z" fill="white"/>
</g>
</svg>
