<svg width="38" height="38" viewBox="0 0 38 38" fill="none" xmlns="http://www.w3.org/2000/svg">
<g id="icon/link/link">
<path id="Vector" d="M14.7015 23.2976C13.45 23.2976 12.3832 22.8564 11.5014 21.974C10.6196 21.0915 10.1783 20.0248 10.1777 18.7738C10.1771 17.5228 10.6184 16.4561 11.5014 15.5737C12.3844 14.6912 13.4512 14.25 14.7015 14.25H17.4158C17.6722 14.25 17.8872 14.3369 18.0609 14.5106C18.2346 14.6843 18.3212 14.899 18.3206 15.1548C18.32 15.4105 18.2331 15.6255 18.06 15.7999C17.8869 15.9742 17.6722 16.0607 17.4158 16.0595H14.7015C13.9476 16.0595 13.3067 16.3234 12.7789 16.8512C12.2511 17.379 11.9873 18.0198 11.9873 18.7738C11.9873 19.5278 12.2511 20.1687 12.7789 20.6964C13.3067 21.2242 13.9476 21.4881 14.7015 21.4881H17.4158C17.6722 21.4881 17.8872 21.575 18.0609 21.7487C18.2346 21.9224 18.3212 22.1371 18.3206 22.3929C18.32 22.6486 18.2331 22.8636 18.06 23.038C17.8869 23.2123 17.6722 23.2988 17.4158 23.2976H14.7015ZM16.5111 19.6786C16.2547 19.6786 16.04 19.5917 15.8669 19.418C15.6938 19.2443 15.6069 19.0296 15.6063 18.7738C15.6057 18.5181 15.6926 18.3033 15.8669 18.1296C16.0412 17.9559 16.2559 17.869 16.5111 17.869H21.9396C22.196 17.869 22.411 17.9559 22.5847 18.1296C22.7584 18.3033 22.845 18.5181 22.8444 18.7738C22.8438 19.0296 22.7569 19.2446 22.5838 19.4189C22.4107 19.5932 22.196 19.6798 21.9396 19.6786H16.5111ZM21.0349 23.2976C20.7785 23.2976 20.5638 23.2108 20.3907 23.037C20.2176 22.8633 20.1307 22.6486 20.1301 22.3929C20.1295 22.1371 20.2164 21.9224 20.3907 21.7487C20.565 21.575 20.7797 21.4881 21.0349 21.4881H23.7492C24.5031 21.4881 25.144 21.2242 25.6718 20.6964C26.1996 20.1687 26.4634 19.5278 26.4634 18.7738C26.4634 18.0198 26.1996 17.379 25.6718 16.8512C25.144 16.3234 24.5031 16.0595 23.7492 16.0595H21.0349C20.7785 16.0595 20.5638 15.9727 20.3907 15.799C20.2176 15.6252 20.1307 15.4105 20.1301 15.1548C20.1295 14.899 20.2164 14.6843 20.3907 14.5106C20.565 14.3369 20.7797 14.25 21.0349 14.25H23.7492C25.0008 14.25 26.0678 14.6912 26.9502 15.5737C27.8327 16.4561 28.2736 17.5228 28.273 18.7738C28.2724 20.0248 27.8311 21.0918 26.9493 21.9749C26.0675 22.8579 25.0008 23.2988 23.7492 23.2976H21.0349Z" fill="white"/>
</g>
</svg>
