<svg width="24" height="24" viewBox="0 0 24 24" fill="none" xmlns="http://www.w3.org/2000/svg">
<g id="icon/numlist">
<rect x="0.5" y="0.5" width="23" height="23" stroke="#CCCCCC"/>
<g id="Group">
<path id="Vector" fill-rule="evenodd" clip-rule="evenodd" d="M9.42773 14.8565C9.42773 14.7429 9.47289 14.6338 9.55326 14.5535C9.63363 14.4731 9.74264 14.4279 9.85631 14.4279H17.5706C17.6843 14.4279 17.7933 14.4731 17.8736 14.5535C17.954 14.6338 17.9992 14.7429 17.9992 14.8565C17.9992 14.9702 17.954 15.0792 17.8736 15.1596C17.7933 15.2399 17.6843 15.2851 17.5706 15.2851H9.85631C9.74264 15.2851 9.63363 15.2399 9.55326 15.1596C9.47289 15.0792 9.42773 14.9702 9.42773 14.8565ZM9.42773 11.4279C9.42773 11.3143 9.47289 11.2053 9.55326 11.1249C9.63363 11.0445 9.74264 10.9994 9.85631 10.9994H17.5706C17.6843 10.9994 17.7933 11.0445 17.8736 11.1249C17.954 11.2053 17.9992 11.3143 17.9992 11.4279C17.9992 11.5416 17.954 11.6506 17.8736 11.731C17.7933 11.8114 17.6843 11.8565 17.5706 11.8565H9.85631C9.74264 11.8565 9.63363 11.8114 9.55326 11.731C9.47289 11.6506 9.42773 11.5416 9.42773 11.4279ZM9.42773 7.99937C9.42773 7.88571 9.47289 7.7767 9.55326 7.69633C9.63363 7.61595 9.74264 7.5708 9.85631 7.5708H17.5706C17.6843 7.5708 17.7933 7.61595 17.8736 7.69633C17.954 7.7767 17.9992 7.88571 17.9992 7.99937C17.9992 8.11304 17.954 8.22205 17.8736 8.30242C17.7933 8.38279 17.6843 8.42794 17.5706 8.42794H9.85631C9.74264 8.42794 9.63363 8.38279 9.55326 8.30242C9.47289 8.22205 9.42773 8.11304 9.42773 7.99937Z" fill="white"/>
<path id="Vector_2" d="M6.61114 15.1694V14.7631H6.85714C7.04314 14.7631 7.16829 14.6457 7.16829 14.4914C7.16829 14.3329 7.03286 14.2257 6.85886 14.2257C6.66771 14.2257 6.54429 14.356 6.53914 14.4914H6.03343C6.04714 14.0911 6.35314 13.8169 6.87857 13.8169C7.38257 13.8151 7.69629 14.0663 7.69886 14.4194C7.70048 14.5406 7.65894 14.6583 7.58167 14.7516C7.5044 14.8449 7.39645 14.9076 7.27714 14.9286V14.9569C7.41241 14.9669 7.53858 15.0288 7.62942 15.1295C7.72025 15.2303 7.76876 15.3621 7.76486 15.4977C7.76743 15.9546 7.33457 16.1834 6.864 16.1834C6.30171 16.1834 6.00686 15.8663 6 15.5029H6.49886C6.50571 15.6554 6.65829 15.7651 6.86057 15.7677C7.07829 15.7677 7.224 15.6434 7.22229 15.4677C7.22057 15.3006 7.08943 15.1694 6.86743 15.1694H6.61029H6.61114ZM6.60771 11.1417H6.09V11.1117C6.09 10.762 6.34286 10.3883 6.91114 10.3883C7.41086 10.3883 7.734 10.6677 7.734 11.0363C7.734 11.3697 7.51371 11.5651 7.326 11.7631L6.86571 12.2534V12.2791H7.76914V12.7137H6.12257V12.3751L6.94286 11.5266C7.06114 11.4049 7.194 11.266 7.194 11.0911C7.194 10.9369 7.068 10.8169 6.90086 10.8169C6.86227 10.8154 6.8238 10.8219 6.78782 10.836C6.75185 10.85 6.71912 10.8712 6.69165 10.8983C6.66419 10.9255 6.64258 10.958 6.62814 10.9938C6.6137 11.0296 6.60675 11.068 6.60771 11.1066V11.1417ZM7.34057 9.28514H6.79629V7.50571H6.76971L6.25714 7.86571V7.37971L6.79629 7H7.34057V9.28514Z" fill="white"/>
</g>
</g>
</svg>
