<svg xmlns="http://www.w3.org/2000/svg" width="32" height="32" viewBox="0 0 32 32" fill="none">
  <path d="M18 15.937C18 16.6 17.7366 17.2359 17.2678 17.7048C16.7989 18.1736 16.163 18.437 15.5 18.437C14.837 18.437 14.2011 18.1736 13.7322 17.7048C13.2634 17.2359 13 16.6 13 15.937C13 15.274 13.2634 14.6381 13.7322 14.1692C14.2011 13.7004 14.837 13.437 15.5 13.437C16.163 13.437 16.7989 13.7004 17.2678 14.1692C17.7366 14.6381 18 15.274 18 15.937ZM17 15.937C16.9999 15.539 16.8417 15.1574 16.5602 14.8761C16.2787 14.5948 15.897 14.4369 15.499 14.437C15.101 14.4371 14.7194 14.5953 14.4381 14.8768C14.1568 15.1583 13.9989 15.54 13.999 15.938C13.9991 16.336 14.1573 16.7176 14.4388 16.9989C14.7203 17.2802 15.102 17.4381 15.5 17.438C15.898 17.4379 16.2796 17.2797 16.5609 16.9982C16.8422 16.7167 17.0001 16.335 17 15.937ZM18 8.5C18 9.16304 17.7366 9.79893 17.2678 10.2678C16.7989 10.7366 16.163 11 15.5 11C14.837 11 14.2011 10.7366 13.7322 10.2678C13.2634 9.79893 13 9.16304 13 8.5C13 7.83696 13.2634 7.20107 13.7322 6.73223C14.2011 6.26339 14.837 6 15.5 6C16.163 6 16.7989 6.26339 17.2678 6.73223C17.7366 7.20107 18 7.83696 18 8.5ZM17 8.5C16.9999 8.10204 16.8417 7.72044 16.5602 7.43913C16.2787 7.15783 15.897 6.99987 15.499 7C15.101 7.00013 14.7194 7.15835 14.4381 7.43984C14.1568 7.72133 13.9989 8.10304 13.999 8.501C13.9991 8.89896 14.1573 9.28056 14.4388 9.56187C14.7203 9.84317 15.102 10.0011 15.5 10.001C15.898 10.0009 16.2796 9.84265 16.5609 9.56116C16.8422 9.27967 17.0001 8.89796 17 8.5ZM18 23.374C18 24.037 17.7366 24.6729 17.2678 25.1418C16.7989 25.6106 16.163 25.874 15.5 25.874C14.837 25.874 14.2011 25.6106 13.7322 25.1418C13.2634 24.6729 13 24.037 13 23.374C13 22.711 13.2634 22.0751 13.7322 21.6062C14.2011 21.1374 14.837 20.874 15.5 20.874C16.163 20.874 16.7989 21.1374 17.2678 21.6062C17.7366 22.0751 18 22.711 18 23.374ZM17 23.374C16.9999 22.976 16.8417 22.5944 16.5602 22.3131C16.2787 22.0318 15.897 21.8739 15.499 21.874C15.101 21.8741 14.7194 22.0323 14.4381 22.3138C14.1568 22.5953 13.9989 22.977 13.999 23.375C13.9991 23.773 14.1573 24.1546 14.4388 24.4359C14.7203 24.7172 15.102 24.8751 15.5 24.875C15.898 24.8749 16.2796 24.7167 16.5609 24.4352C16.8422 24.1537 17.0001 23.772 17 23.374Z" fill="#CCCCCC"/>
</svg>