<svg width="24" height="25" viewBox="0 0 24 25" fill="none" xmlns="http://www.w3.org/2000/svg">
<g id="jam:write">
<path id="Vector" d="M7.72 16.743L9.481 16.235L20.084 5.50496C20.1676 5.41925 20.2142 5.30409 20.2136 5.18434C20.2131 5.06459 20.1654 4.94987 20.081 4.86496L19.446 4.22296C19.405 4.18079 19.3559 4.14723 19.3018 4.12421C19.2477 4.1012 19.1895 4.08921 19.1306 4.08893C19.0718 4.08865 19.0135 4.10009 18.9591 4.12259C18.9048 4.14508 18.8554 4.17818 18.814 4.21996L8.239 14.922L7.72 16.743ZM20.703 2.95096L21.338 3.59396C22.214 4.48096 22.222 5.91196 21.354 6.78996L10.428 17.848L6.664 18.932C6.4342 18.9963 6.18826 18.9668 5.98016 18.85C5.77206 18.7332 5.6188 18.5386 5.554 18.309C5.50578 18.1438 5.50509 17.9685 5.552 17.803L6.647 13.963L17.544 2.93396C17.7512 2.72531 17.9979 2.56002 18.2696 2.44771C18.5414 2.3354 18.8328 2.27832 19.1269 2.27981C19.4209 2.2813 19.7117 2.34133 19.9823 2.45638C20.2529 2.57144 20.4979 2.74023 20.703 2.95096ZM9.184 4.10396C9.68 4.10396 10.082 4.51096 10.082 5.01296C10.0828 5.13162 10.0602 5.24928 10.0155 5.35921C9.97076 5.46913 9.90481 5.56917 9.82141 5.65359C9.73801 5.73801 9.63879 5.80517 9.52942 5.85121C9.42004 5.89726 9.30267 5.9213 9.184 5.92196H5.592C4.6 5.92196 3.796 6.73596 3.796 7.73896V18.645C3.796 19.649 4.6 20.463 5.592 20.463H16.368C17.36 20.463 18.165 19.649 18.165 18.645V15.01C18.165 14.508 18.567 14.101 19.063 14.101C19.559 14.101 19.961 14.508 19.961 15.011V18.645C19.961 20.653 18.352 22.281 16.368 22.281H5.592C3.608 22.281 2 20.653 2 18.645V7.73896C2 5.73196 3.608 4.10396 5.592 4.10396H9.184Z" fill="white"/>
</g>
</svg>
