<svg width="56" height="57" viewBox="0 0 56 57" fill="none" xmlns="http://www.w3.org/2000/svg">
<g id="icon/link/discord">
<path id="Vector" d="M37.6909 19.0605C35.9176 18.2338 33.9976 17.6338 31.9976 17.2872C31.98 17.2866 31.9626 17.2899 31.9464 17.2968C31.9303 17.3037 31.9159 17.3141 31.9042 17.3272C31.6642 17.7672 31.3842 18.3405 31.1976 18.7805C29.0762 18.4605 26.9189 18.4605 24.7976 18.7805C24.6109 18.3272 24.3309 17.7672 24.0776 17.3272C24.0642 17.3005 24.0242 17.2872 23.9842 17.2872C21.9842 17.6338 20.0776 18.2338 18.2909 19.0605C18.2776 19.0605 18.2642 19.0738 18.2509 19.0872C14.6242 24.5138 13.6242 29.7938 14.1176 35.0205C14.1176 35.0472 14.1309 35.0738 14.1576 35.0872C16.5576 36.8472 18.8642 37.9138 21.1442 38.6205C21.1842 38.6338 21.2242 38.6205 21.2376 38.5938C21.7709 37.8605 22.2509 37.0872 22.6642 36.2738C22.6909 36.2205 22.6642 36.1672 22.6109 36.1538C21.8509 35.8605 21.1309 35.5138 20.4242 35.1138C20.3709 35.0872 20.3709 35.0072 20.4109 34.9672C20.5576 34.8605 20.7042 34.7405 20.8509 34.6338C20.8776 34.6072 20.9176 34.6072 20.9442 34.6205C25.5309 36.7138 30.4776 36.7138 35.0109 34.6205C35.0376 34.6072 35.0776 34.6072 35.1042 34.6338C35.2509 34.7538 35.3976 34.8605 35.5442 34.9805C35.5976 35.0205 35.5976 35.1005 35.5309 35.1272C34.8376 35.5405 34.1042 35.8738 33.3442 36.1672C33.2909 36.1805 33.2776 36.2472 33.2909 36.2872C33.7176 37.1005 34.1976 37.8738 34.7176 38.6072C34.7576 38.6205 34.7976 38.6338 34.8376 38.6205C37.1309 37.9138 39.4376 36.8472 41.8376 35.0872C41.8642 35.0738 41.8776 35.0472 41.8776 35.0205C42.4642 28.9805 40.9042 23.7405 37.7442 19.0872C37.7309 19.0738 37.7176 19.0605 37.6909 19.0605ZM23.3576 31.8338C21.9842 31.8338 20.8376 30.5672 20.8376 29.0072C20.8376 27.4472 21.9576 26.1805 23.3576 26.1805C24.7709 26.1805 25.8909 27.4605 25.8776 29.0072C25.8776 30.5672 24.7576 31.8338 23.3576 31.8338ZM32.6509 31.8338C31.2776 31.8338 30.1309 30.5672 30.1309 29.0072C30.1309 27.4472 31.2509 26.1805 32.6509 26.1805C34.0642 26.1805 35.1842 27.4605 35.1709 29.0072C35.1709 30.5672 34.0642 31.8338 32.6509 31.8338Z" fill="#CCCCCC"/>
</g>
</svg>
